<mxfile host="app.diagrams.net" agent="Mozilla/5.0 (Windows NT 10.0; Win64; x64) AppleWebKit/537.36 (KHTML, like Gecko) Chrome/132.0.0.0 Safari/537.36" version="26.0.10">
  <diagram name="Page-1" id="PTsGG6JdFQYw-J1rcIPR">
    <mxGraphModel dx="4197" dy="877" grid="1" gridSize="10" guides="1" tooltips="1" connect="1" arrows="1" fold="1" page="1" pageScale="1" pageWidth="850" pageHeight="1100" math="0" shadow="0">
      <root>
        <mxCell id="0" />
        <mxCell id="1" parent="0" />
        <mxCell id="X4ekr1TlXGtI4e0G4jIp-58" style="edgeStyle=orthogonalEdgeStyle;rounded=1;orthogonalLoop=1;jettySize=auto;html=1;entryX=0.013;entryY=0.828;entryDx=0;entryDy=0;entryPerimeter=0;curved=0;dashed=1;strokeColor=#0066CC;" edge="1" parent="1" source="X4ekr1TlXGtI4e0G4jIp-17" target="X4ekr1TlXGtI4e0G4jIp-2">
          <mxGeometry relative="1" as="geometry">
            <Array as="points">
              <mxPoint x="-1350" y="369" />
            </Array>
          </mxGeometry>
        </mxCell>
        <mxCell id="X4ekr1TlXGtI4e0G4jIp-1" value="" style="rounded=0;whiteSpace=wrap;html=1;fillColor=none;strokeWidth=2;strokeColor=#FF99CC;shadow=1;textShadow=1;" vertex="1" parent="1">
          <mxGeometry x="-1733.62" y="880" width="1220" height="570" as="geometry" />
        </mxCell>
        <mxCell id="X4ekr1TlXGtI4e0G4jIp-57" style="edgeStyle=orthogonalEdgeStyle;rounded=1;orthogonalLoop=1;jettySize=auto;html=1;entryX=0.5;entryY=0;entryDx=0;entryDy=0;exitX=0.985;exitY=0.788;exitDx=0;exitDy=0;exitPerimeter=0;curved=0;dashed=1;strokeColor=#0066CC;" edge="1" parent="1" source="X4ekr1TlXGtI4e0G4jIp-2" target="X4ekr1TlXGtI4e0G4jIp-13">
          <mxGeometry relative="1" as="geometry" />
        </mxCell>
        <mxCell id="X4ekr1TlXGtI4e0G4jIp-69" style="edgeStyle=orthogonalEdgeStyle;rounded=1;orthogonalLoop=1;jettySize=auto;html=1;curved=0;dashed=1;strokeColor=#0066CC;" edge="1" parent="1" source="X4ekr1TlXGtI4e0G4jIp-2" target="X4ekr1TlXGtI4e0G4jIp-68">
          <mxGeometry relative="1" as="geometry" />
        </mxCell>
        <mxCell id="X4ekr1TlXGtI4e0G4jIp-2" value="&lt;div&gt;&lt;br&gt;&lt;/div&gt;&lt;div&gt;&lt;br&gt;&lt;/div&gt;&lt;div&gt;&lt;span style=&quot;background-color: initial;&quot;&gt;Master for&lt;/span&gt;&lt;/div&gt;&lt;div&gt;&lt;span style=&quot;background-color: initial;&quot;&gt;HCM, Absence, Scheduling&lt;/span&gt;&lt;br&gt;&lt;/div&gt;&lt;div&gt;&lt;span style=&quot;background-color: initial;&quot;&gt;UK Payroll&lt;/span&gt;&lt;/div&gt;" style="shape=cylinder3;whiteSpace=wrap;html=1;boundedLbl=1;backgroundOutline=1;size=15;fillColor=#ffe6cc;strokeColor=#FFFFFF;shadow=1;textShadow=1;" vertex="1" parent="1">
          <mxGeometry x="-1100" y="253" width="160" height="140" as="geometry" />
        </mxCell>
        <mxCell id="X4ekr1TlXGtI4e0G4jIp-3" value="" style="shape=image;verticalLabelPosition=bottom;labelBackgroundColor=default;verticalAlign=top;aspect=fixed;imageAspect=0;image=data:image/png,iVBORw0KGgoAAAANSUhEUgAAANMAAABVCAYAAADT7tEcAAAAAXNSR0IArs4c6QAAAARnQU1BAACxjwv8YQUAAAAJcEhZcwAAFxEAABcRAcom8z8AACAVSURBVHhe7V0HdFzVmb4jWbbBGEJJYnYTSNndAAmQShpZSCPZQLLZTZxCc2Jr3psZNTdCnKbkUGzJFnLBYGOCg40tvfdmVFwxgdiwCyEcWkJJII26xoAdSZaLbEuz3/e/+55Go6myjGXzvnPumdHc/t//u/9/y3tSAUY2Xq5Vp+ycqy7MFfYgdM1T5ydr1VidLUCANyf6VqhxW+eqcR2z1Xt21qub9zaqFV31buisV08lb1TJnGGxSvYtUMmuueoBL1/vfLViZ52ajTJPZNl9CLq6AAGOLnTXqQ/33ai+DMvy830L1FYQYSuItF3IcVN/6AVJkCZv6J6H9AtT8t7sE+wVxG/d2yDlV7DOjnr1Xt2MAAGOTCSXqlNgaebsvUHdBuvRKRYFBNjXqJL7EfjZnYEoQw0kWGrZQjbUibi/7p+vlnTWqauSywPXMMARgleuU29PLlMXwhLduH+hejm5yLUcINQg5T/UwSMqiCSWS4i2QD3fVad+gr8vxPrsWN3sAAFGFuBizQJpHqPi0l2jEtNapCt5MWFPg0sCht34nilNoWEX2nIAbWLbSPADC9TdXfOUoZsfIMDhRXe9mnBgkZoE4vxJ3CoEKm4+940ko3Iz9MBqeeue9CDl1KvXkWcHrVumNHTlSDqvvLx160/m6wFJO+eqp/tuUpf88So1XncrQIA3DslaVYJ10A/33KD+QKXkbE9FTlfc1EACcZOAhKOFIAH4iXK2QaGvxeeP00PHHPWdXXPVx7bPUZ/C+ut7u+cNTgOLuBChh9aLZYrlQR35NjOQR6ydpEcf9s1Xm/FbRHcxQIBDD8zsk3oXqie5HiI5MimqF0ggKrhYEKSHsj4JAj2OdUvjjtnq3L6F6tyOG9R7dNFDBso9q6dBncsyO+uUdaARddSrP0u9sHpisXKQndaKO4vcvEB4fOds9TlddIAAww+sL87ouxEWZK7qpeJlU04osWw4eBYCf++FKzcH+WYlbVWqizvk4JkT2nMtrM+NXnsYaI3QlsHtRoDl83YAd8DS/RiTxVt1cQECHDzg0o3qu1mdh7XLX5PLsisjg8zwsAZ7G9RepP8fWJ7P4PMcXdRhA11FWKevod1/EEvpEiZjYN9kfXYr/mYfGtWZupgAAYaO5FJVBsti9cJFowuUSfkYfEuEdL2L1WqQ6mJdxIgD114HFqkNJJS3dsvUJwZv9w+kmqOzBwhQPHZco07vrldNtDTZtqXp6jEei/fdIN3dexrVhTr7iMaTtWp032J1EazQ70GmPq6rMvWPQawUiAfrVvf6teqfdREBAhSGjjplQMn2cVbOtjbyZm0o5eo9N6iLkC3k5j5ywDUcrM7lsFTruQ7kjmCmvnIy4WZLT6Pa0TFHfUlnDxAgN7pApH2LVK8cuqYplb+egDVC3DN0mXS2Ixr2RFUKIv0MfdxBK5RpAuFvvQvlFsXOHXXqEp01QIDMIJFobXiYmb7JwL97QTAs5PfD5bmj6yjc6UIfz8JksYVWiJNGav9FBvWuNd7bqHaBXIGFCpAZUI7yfQtVbyZXR3bpeMeuQe3orFNf0VmOSrzQoI4BqSJw7fq4oZIuC04qB0Co/QtV1/bZI3ejJcBhAmZcU2bjDBaJ6wW5UbBQPfSPOvVZneWoB9ZSl4Iwz2c6U/MsFNaKu4M1VAAfUJTJPQtUX7pFIqnkTAbKBMW6bsccdYLO8qZB13XqjN3z1G3eLYp0+dBCwZp3dgYWKoBnkTKtkTwiwTJdrZO/aYEJZwk3XQYRyrNQDWrv9qPc/Q2QA7RI+7JZJO7YgUhQlh/r5G92hCCLX2YiFINs2ixQXUf7ejJABtAt4TZvJovEXay+wCJlxO5GtTirhYI88X3v3jr1rzp5gKMdyYmqFIP+2/SdqsAiFQbI6pZMayjZ8XRlukwnDXA0A+uj4/c0qjtkhypFERhIpD4eWDaoWTp5gAxIwuWD9V6ciVD8uxeyxeccbrHrLAGORnTUq6rkLYO3ekksbkR0zVM/0kkD5EFnvVqW0bpz4waT0vbr1Sd10gBHG7oa1Zkg0YuDNhzg7yeXiCI066QBCsDWGWoc1pXynr/0dSfvLe5qUPfvvE69XScPcLQAVmcMSPMgF8+pg87AA9me+erVzgb1CZ08QIGATL8B2e3jPcZ0QtEDwOctOmmAowFyM3quqty/QB1I9/G5cwe35JUdc9T5OnmAIgHX+dLeBaqLN0VSZcs1KLyAzs656j900gBHOjoXqZM767LMnstUsnOOmq6TBhgiYKF+pS2RHyhrrqm66tRzOlmAIx0g0kKegaRvOuwDuXY3qk3dN6hTddIAQ8SeevVeWKLfc8JKlTE9gQM3qh5YrwqdNMCRCr6xZ898tT19kOmC0C15eY46TScNcJDYWac+K++WSJm0aJ34yD/c6Ue3zlVv00kDHGng+xs669VmDjB37FLJxN8wW87n49s6eYCDRN+tajzWn+08f0p1p2W3FL+BbHU6aYAjDbvmqq9yG5yvr0ol0v4F4vK92tGg/kUnDTBM2DlbfQFeQE/6g4UcB5Cqo2P2wb8jMMBhANZK9/IMJHVQeaDI+3hwRb6okwUYZkDuNek3TOSqEb2BOjVXJwtwpKBrjjp/d6PaLsRJGVRuRGBA730jXwb5ZkP3tepUrEef4QZPquwPQPaYzB7ZOT84yD1iwPeAd85T1+hbDf5gypWhxWp/d2Nw7nGosbNeTe+7WfWmWidZO92skljHXsn7fTppgJGMzkb1vl3zVBd37LyBZJCdprnqzuB/wR56wM07DkR6hv/cLXUMxFrVq7+9GZ9aPiKxvUGdLRsPKSfyPO/YO1/1ds5RM3Wyw4va2hJlPFzmh4n2yHM7a5Mlo6PWdFW1dkmoev2ScZXOd6XdBQIWKMGHBlOtkzw/Vq92dtSqk3SyACMZO+rVOUkMYiqZ+GpjDO7+voYRMohh5yJVteE5ZdjPqcq1z4VMp/2sWntkbdMbViQ0/e6kmnpXUk37dTJUua5XheNf0LF5satBnccbEKnjoHf19vCfCuhkAUYyOOt1zlVtXDNxMCXcJGRaNGI2HsLxb6hp9yRVRXtS1WxKlprOC+f+aO3IevWwaf2YJFKm44aaO5Oq3PovHZsXfXVqPIjTnj4OWMfOh6sdnO8dKeAt8T2NasWBBerB3kXqwT0NI2xL1oh/HZbJVdKKNcnSiP3sh65q+ycdOzJgWFerqZv6yVS1PqnC1td0bEEgabB2vZ3jcADjsOsGNS+ZDDYfAgwn3iRkChDg0CMgU4AAw4SATAECDBMCMgUIMEwIyBQgwDAhIFOAAMOEgExHMWo3j1Ixe4KKrZugZm6eoKYsK+6mAPNJQBkzfzdB1daO0jF5cfLkW8dLnQyTlr9F/1wcjKVlUq/0ISXMRJumWAd/64Fls30ZcKKx9ASJ8+tE2gvy9P9gyHT5irf58p6yemg3sKust/rjJUF/T8Vwk2lymzvOfp263intxffhkqXH+mVR3kPBNxuOcXVm3YRjUc7pk5YP053NWOsHVSTRrSLxbhVt7Vaxtr8pw/mojs2NsD0DCtENgbuhci3KaWlFeXkfU56AQS2JtTyqYu2ok/W2P1twvcDba5reVRJbcwXa3aYqUK/XBi9EW7pR3t9U9Z3fV5euKv4KS8w+Thn2Lapyndsv05mtqhaM0bFqVHj1x0sr2p4QmXl1Sv8TbTn7P1QyhZsuwti8ljJWu1TEmaxj84Pkq9loKtPehjHqb7OJsvhZs/EqZa5y3xVuNP1wWMgUsT6nqjZegTofkXH260RgPwy7E2NXM6rc+YzOkRvlLf8WirU/4JfFsTGabynqfqMQuW2LqzPx7pLKNd1l0eYrdexBwmw5D41KooIkFDCpZmxOhkznNh2bHdOsYyCM10XQ0VY3xBB4nyvc/DGdKjNoDU2nXa6p6LyhaXcnQxHrWp0iN6JNnyqpbH82xLoq17rt9trgB/zGPvFaTOW6h6GAP9S5C0O45b0YNCg8AuVjOj3yO/odiiSWo/ztbt9T6mZ9TGtY2d9oOhQyTWn+CvrZKWWzvmrkj7b0oZ7LdYqcGAt5QXEeU9N/445RJnlNvwefib+LsplWWMbxYMhkWN9Ge3tE/pRhxjFCQD2hWBsnvxt0zuzgmETbnnX1huMLvQHpx8Scwh6LJ+kMZ4mCrrntQZh5H8bLLk43ssJo+aQMjic4KFBJLP738TXW+3SKjBgVtWeFKtb2QkmTbkgguAqiws40lUxmvzrCi50miEghs85K5DHjTwpBcwFllpj2lVDmf8gAMy/rZfsp4NQgBEC7TNtVhmr8Vm79QpeUH+XWuyHk/b7QzfhOKNkX0cc7RCnZT4mjUuCTMpDZPL5AJotsKJZM5c1fQh27ZdIw0BfWW7l2J2bkr+oUOXGMaZ1XUgGLJnUiP9vJNldvHCwvfhrO7xCWS32eThRJplKj+Voofa+ML9ucqT6ZiPA7y/cmPcP+ZV4rU25NF5Jy3JkX5YZM60EdmxvGr09AHZ1+vfysXPcqxmyY/h1ORcvJaFibqpLZ12+g3G7OBdNaqKa6lyFDUDoo+R5RXg626WzVqbLDsJ7rJ9NalOE8rWOyY8rqL4J4+6QODhIHgcphWFfBpYDLlxJoXdkPxlOJqPAcxHKsBwpBKpnYRhk81oXfWI4rK+222LtCbNNVmOXCzk91CZlROJlCykh8Ge4ILFIKkWKte1BHYQ85VqDcCMiROllGWg6EDGs7fq8YIC/DvkHkSSWnRWZ9Xp5iyGTal4mye0SSSc15HfoyJbU+jPcv4AF1a31xx4nW0LAW65IyYyIm4rC1S9rKfEKI9dsKIkQ0/h6OlU8mTrCGdZ+OHSYY8Z/03xJGpzh4YbgGWXD8NOskWIc1ImSZwex7Q0bzXBk0CBGD9fJpP1yXfZ1CN4huknQK9SHPmIg1X8dmBtsTbXnFtWIkh8wq+1S5/T2dYhBC0dbZWAv0EwoDi9+eE1cmH9LJJANHC5TgIwlbSqLxb7v+tz3hxGjTO8vY/khipSy2c6FQMk1cekLItGFRIGOZOKCcFWs71ORVX9cp8sO0E+LSeO2XWdzZgnZmXtNFWqKQEV2u/jwMhZIp0vwBktUnEolS0b4dZVyoUwxEVeIdsIJ3Sfmsh/mira+KO5cFpxpLjy0xrM39lhP10FPg+j0fTHsl6uqTfNSJ2JpekLxRxw4PxsXsGSVVa/tcpWOnIATDXp3NXSmNNH8pxFmfaTnzhO1NYh04Y6MMun+jYk72/yphWCt8n5wzPmcZI36Gjs0Mw1rvKwbbyXpzEMlH2FqGtBAa8lHwaOOYqLPiyymbCRmRkUwyo3VgdjxOpyoehZLJSFzvKgz6yjbIhGOX69i8KINiw/3ZKgoqbaecW/tKI02X6CSZYdi/7VdUHQolk2H/yicGZVXRvksmzhw4sdo+rbSi5QW4hW4+TuqRONZPOZYJ9JoqN+gxRXCt229z7nDy4caIs1G8FWmfHtfIiuF9p99ZMfs4zIJ/dGd9No4zi7NDTGomUECVFJpWasNei4b+iM/nSP6pVPr4jTr1YBjWIn+3KCKzfY+KNp2pYwdhfFXTp0qjide1Muv22U/DKhSm1NGWe3wFhhAxs/Womjxb8elk4kxLMnPSKOKp00EohEyGVedOTK5rWQLlHh1pLu5F+Fy3pm4iUGZh6wFoVe62yw6cHlsvbyFkogsVbd3mk7eC3k3zOh2bE6GIdZs7UULGlHesrQN5P6yjB4Nra3pGnrvNybVqbbIskviATjEYfI6seuOufoPBCdx+Qo4Khh1h+1F/RnLJ9AIGffDsDWuFNdIvZTbgYFPBY87nRcmm6s5BkKVR52HOOjqXjwmx+OmlEecRn7h0DQ3r1ox1eTCdb/UrBpX6HuaJ6Nj8MKwWf0aiMDFDj4o0T9WxmZFOJvY31v443M2sLkhByECmc6dZ/Q8HRpzrxZcXItGSboKSWJvPq1p5vE5RGMoTVQPIJHIuYNPiKripJibH1DV0IWQyYE28pQJlTHmFV39cx+ZGzD4f6beJLnleh7E65zHJ2EjT1aGKdnhT7oTD+kDKRTp6MEwnZYdST4wRq/CjhaIQbv6G2xk0Tpi+fj8aeZ2O7UfVs2OgZJ3iw3tkql5zmoquOhGK94TMSGhwCGuV0ormL+lcPkCkS0L+Ah6d4pbsFCv7op2Hsob9k373AXVWru+Ashf85Cfa+QH0ZadPDHftgFk6B9LJxDYb1h06dujIQKaPz+LhJSwGz7I8i0RLKN9bHpLD2iLAQ8hS01rly0z6zDqtb+okuRFuqlTTUohYEJnglvrehiaT0fzvOjY/wtZTojsy2bVzMp6oYzLiHdOWnYTx2C16yDqRNxSJP//WTOthunKmjbWyt2mBMa1a/49Cd0SLxxS4WR5BWKHL4sHnTXT9DOclNy1cpojTPSZmuW9INazf++6fDKQ1+IWPRuvnfWUCEUOV7dtHR5qy705NWj4BirVXSMs8MsPaG3RsYZj8v+ORp8Mvg/Ub1j06NjPSyUTLZjiOjh06MpCpwbKOGQ3lkXUo3V7G0WWOtT2kzF8V/Uj7+Ij1Pkxa/WMp5XECs76lk+TGEG5AYHJaOMDtkrW0dYGOzg/D+ZMQkPlpZUz7yZzHK1xTRZzFvseBUII2j2bb0xFOnIqx7B04Mdp36thDAJ5+m/FXUpV2lGklPtGQdvZjOteo6vX7RGCwPiGzud7fqKA7JZbJnZkgkPtBhv6rGvJmnrghgmYdcCVC4TxnBFxUGg5P/P124e/iBGGsOQXC6z9fEGW279axmfGGkAnucMR+/J1TnfeHovHHfWVyJ6r7lbHqFJ2rOBirzpAx8MjEw81I/PVR+Q7TPRRJpgk1TWeOjTmv+fLFMgF/P316Teu7dJL8SCMTZP/X3GQCwtbZWJq83j8BcYziS9LPK0dHrIWhyjV9IhMGeUGMdZOOPkQw7Vn9QownR1e29p5U2TzwrTSGc7trteiicdHY/AMdw8Xr+4RkHETX/L424K4eNzoMe5tvbl2//CEdmxkumeCiHYVkQtmYcF4oMe2/+BOM5yKVr/qIzlE8OA5SliYTyFBiWL+eWOhbkIq1TLGW82Us2Xamp1WNFHgrwcNgMj2bl0yE6SzzzjulfuoWt+hTwa10Eo1pqAP0dKgThxSG8ws1A2sYEoUVU4GiiYt1rHtfLRJPiEKjUaFIYscY7v54YCeEILpT0ZZtqnzFu3WsUjM2jUO5r7odxkAz5Fv7HM1kghxApGfKInZCyOQpIyzWKKO5RecoHulkoszCdquOzY9iyWTGPy0bSj6ZZLIdvN7OhSGSqcSM/wzt2y91C5kwiYctX2fp8sLq/8XfZaTuGdafVTTHOeiwIAwrVLn2/+gWeELEQrZf2SlQClbiqBDcak0BbwGb9n2+UGQBbS3XsRAYNxOcrQPIZKzJ/X+SjmYyQU5Y2zw1cY59Asqu82XLdvIyZ7SINUcqhExULk0mktO0Hv3grAK3gYsk0/ga5+NlFZCTRyb0ryzqOOfMWDFOJ8mPoVom977dS35e7kiHrT/oWBA9YfqWi4FeVdi6QsceYvB6RbUeVLAZbshDUMZjJW5y0+dFmRnH9U7EuUt+T0XYjvlbkBwQ3ur14M4iPSJ0Kikvypp5/OrwylOlLE+paa7D9hodWxhGNJnsZ2O1sPjoZyja0iPK4N8eWNOByaT4/9phxM8IcUL0lBukKqts6zmpqin3FTEPRZKJpCmLYL3sTQaorzTWsv+YQrfGiaGSiSi3wiI3sUxt9JheOanKOkvyU+dSN0aqNvC2fe6D62GD6TzmC4UWhCf+PAOamCyFJWpwG50AyeJ94yoSgwZ6VLR5VkjOG6AQTBtre0AUk6AyekSjX21Y03OedBOXrTwegt0wQNCx9qfQlrN0ivy4HO7lgN08EgMWNBfeQDK5h7aQQyTxNcjMtcIklMivvQNpM1/HyYLjpyw7qSRsbXI3g1APg6tQhe3mhZtnFOXmEWbiGj8PlVbWgE2Ftzts/3HIZOIBb6qbKdv68VnqAnk6oad/DLmL57Qf1KF7UeB5UyThXi0Sdyz+mpwST9o8FgTZI7+5V1PQsMEu2thY/PRQtPVJLRD3NoThnhmUGs2WO6j4nfepeNBbCHg+IqYa+Vim5LUNHZsfEedaKJbrV8tuztq+kGnlfszkDSeThtH07ZBYf7aVhFqXLInE/3G8d/xQKMJ0b/TEJe1HmYWcq/DhRtO6xp/NGQoiU3yhuyGFNlPOHP9ctxhSwQNpM2VdUyyZJL+zzr2Bg/rR3lFYh46tsD45YAyrNvSCtMXdJDkolCfeIQPp+dvVG0Es3QDDcnfi5IaE/TjSZD5MNOz7+91BfJYnPnH69PgZZZWtO2TWZahav1VF89xM92BYX4aA+UCZLpOD69w2YNs9F0xYNhE08nIi4Ge+mwyHiUwn1Cx/S4lhPSmzKNNQOWRGtYt7M225c/WAS66uguW/DAq5hExnt7/drPPmJxOsXtU692DcIxMfMiwEUR63bBp4164YMhFRyLVyfZc3XugDx2sv5OdebO33sjKvG/n8Vc3dJvL8t/7l4DEGSlTCSj0lcmeoZeicgU7uFYWmYoatqM4yCGOi9q/kkQSSUj6dVejUlaKQMnNQmeCGFAr3+ad7fQVjG7hr8/2V+V09eVH+upddF4+KuZE7aFtSn5rNiMNlmQhOaLH2R7TsXOWUPC0/0yny4oRK63Mlsbb++4xQJpD0xVO99W82RO2PuB6JnnQYCiETwTNDuqa6b2j36zJ2eYC19xpXN3R9zFssmYAQJ/jUIwZv7BiETPZz/vrfAzdJDCeCNPXwfuagjLmQwffzPltXEORgFbOaN5Ozk5HEIpjHle46BwrJK0CmM03nGITR3E0yHPfEmZ3gbgt3VTzlEKtl5z5fSkOJac0UYnsConWsaH8IpMx6Q+A4Y9UpEM4Lsl3PdtM15cNg0fhndZLsOJxkIqbcfmaIdXuTAL+LwsEFKxDo+8O+ksoEREJBUbKBm0Gx9idcxUMeLxRIplKz+Sv9j7ywf2t7Q7HWxDtyKWbYqoYcYJV0Hsk3NDIdE7O1jqWU5QXqXHnzZYPW6Lz5w3t7nPCn3nWNXCgOW5WqWLc6G0oMp0IeCZdGyGAsxAx/k3xnYyvanpTt12wQV9He55OJN9L50BjzclAjLVi/2N/RqQuHYV3vDhZnTVoZuj/OE3Jj+XLMMKkhbF0cql6/xScDAycBw7Z0ablxuMk0sXZ0yGy+UdY9Xn/RlhAUe2yMSlEATOe7IcrfszK05rHWbWVR6+cn8C5lqrzMtrNQvvtIOMkj/UadzFeoZeKzXGYi7rv4CLyHGYrYbXJ3M6W+cVgihHj3k+1j+e4BvhuGSCa4tu9XsZZ9fn/9AHJVrtsvTy2nYlLrWzCmFe7/ynKWjKuwLsUEtF4IZ8ZrhsU6va3aOac0mnhehO8KZikqu1W+y5UNK/c5z0S7NMRn7WVQxM14EaFRBMdBClsH1BW3n6xTF4doYp4MOH16WhuZiZztaN/WAYG7OP6sDGGKuxp/BO15py4pNw43mQQY1EjL4gGKxiOJWNsjqgaKkAe18DJQ/haXkJCBWOe2ZMhd6L+SJi+uJzi23JzZGOKDiV7fCyUTcGx45anQnef6Nz9QrztGA+sznFfld6nT+RPq+02/RRsimXiOaWLSn643qzyZye2HuI26Brr2U+7kZdmr9fnnfLRhJfo5e6JtlyLfNYNcwiGDW8dUIApU3DQb6w58d8m1UafKDq6p5FEJdIpC8g6CQa4y095xMh+pHhpCKtw8W3a82D4hKMrmZ2oQRUC9HCz68RXtD6rJqwuvkxsUJKy3YSFkhG9/sBhEJufPZ/8AljwLzqqtHV0asZ4RhfYURIiN8SnkWRxa7Yp2dy0hZSA/5ZIuL7rwiB8Via+UfKb9oIw1x4/E4C5vgTiOj1REWy3Jx3ppKdLrY0B9oVj7XrlFY9inSfu894gY1ktFk4kotz+I/r4g5UtfEWru7IMOL9EpBoJuXtiZXBLDsqX8jg/Cit6MJUUN9PdsnWIYYNo3qxlb3INXukcMPD9yO/whnSo7ypv+E0pzQPJxoFgOP69+AAPm/HRiMa9nyoCxVYmrS6rWb4aQdshWOctODdxK56BUrLlPVa75urpsQXHPA/Gmcdh6Xs3c7CrTzC08pM7+vEyh4K7RD+532zjzPt66f+kj03PfEys1HchyXY8vS4YfPQRFyXPw7OHSm04sibZOgSx+J0Rmf3w56e9VGx7DuFbzsXDJw6dm0Wc1A7Ll2deU5k/L74Vi4sRSTEZLSyrXPMqHG2U8Uut0n316Wk2+/aOiC1w2RFtf49uxRO9gHYdEJsKwfuc+vQAiCani27Kurel+ms7MMTE+77Tx4rKYMxl9ryr4wdOCII9aoFAzMU2e2mTgd6O5KusTuOmga1C9oT8/Q/UmlJHnEfViwKd+WWZqHQyxtmkYoIN7+IsHwyxb9/u46UO8xZ0Kvt+gcp3bRn7qM7i84OLel6Xl5g1bl+rYwsDNpUg8qmKpY6o/uZZJxTexXjCap4IETFPUoXEqLqldeuyYaHyKjEdqnRLSFDza/DGpj2kP5gWivDzt7epxqWLYL/L/9OrYjDi20roY7uBPxvFB1wABAig1vqLl5JDJq0ncooc7K6Syr8x70yZAgAADMcqwpodquCblZgbXzHD3hnphOECANzOwBm3Vm2TuRk00YSm+0z5AgABFgM/jeTcwGKbdzaOH/K9dDhAgQAqiLT/zj3L0xkMomnh2LLfcAwQIUAD4BqTqjQtlo0GIxHPNhGy/l0WsSTpVgAABsmLS8rEhvuU32topZ1jcbPBuxMg78VoWy/Z+gAAB8oC30XmPjofA4ta1yYZDSaztRRWJ1+pUAQIEKAh86yt37sTFa9taVtH6G3liIUCAAEVCXqbCWzpOPd98dUG+f4EaIECAkQSl/h8mmq15k1yedAAAAABJRU5ErkJggg==;textShadow=1;" vertex="1" parent="1">
          <mxGeometry x="-1063.87" y="289.36" width="80.5" height="32.43" as="geometry" />
        </mxCell>
        <mxCell id="X4ekr1TlXGtI4e0G4jIp-56" style="edgeStyle=orthogonalEdgeStyle;rounded=1;orthogonalLoop=1;jettySize=auto;html=1;entryX=0.5;entryY=1;entryDx=0;entryDy=0;curved=0;dashed=1;strokeColor=#007FFF;" edge="1" parent="1" source="X4ekr1TlXGtI4e0G4jIp-13" target="X4ekr1TlXGtI4e0G4jIp-17">
          <mxGeometry relative="1" as="geometry">
            <Array as="points">
              <mxPoint x="-810" y="550" />
              <mxPoint x="-1352" y="550" />
            </Array>
          </mxGeometry>
        </mxCell>
        <mxCell id="X4ekr1TlXGtI4e0G4jIp-13" value="GET&lt;div&gt;Work Schedules&lt;/div&gt;&lt;div&gt;assigned&lt;/div&gt;" style="rounded=1;whiteSpace=wrap;html=1;fillColor=#76608a;strokeColor=#432D57;textShadow=1;fontColor=#ffffff;" vertex="1" parent="1">
          <mxGeometry x="-870" y="410" width="120" height="60" as="geometry" />
        </mxCell>
        <mxCell id="X4ekr1TlXGtI4e0G4jIp-17" value="&lt;div&gt;UPDATE&lt;/div&gt;&lt;div&gt;Position with mapped&lt;/div&gt;Work Shifts" style="rounded=1;whiteSpace=wrap;html=1;fillColor=#76608a;strokeColor=#432D57;textShadow=1;fontColor=#ffffff;" vertex="1" parent="1">
          <mxGeometry x="-1412" y="473" width="120" height="47.5" as="geometry" />
        </mxCell>
        <mxCell id="X4ekr1TlXGtI4e0G4jIp-22" value="1" style="ellipse;whiteSpace=wrap;html=1;aspect=fixed;fillColor=#76608a;strokeColor=#432D57;fontColor=#ffffff;align=center;verticalAlign=middle;fontFamily=Helvetica;fontSize=12;textShadow=1;" vertex="1" parent="1">
          <mxGeometry x="-1425.44" y="260" width="20" height="20" as="geometry" />
        </mxCell>
        <mxCell id="X4ekr1TlXGtI4e0G4jIp-23" value="&lt;blockquote style=&quot;margin: 0 0 0 40px; border: none; padding: 0px;&quot;&gt;&lt;font style=&quot;font-size: 14px;&quot;&gt;FINAL End to End Solution related to Absence Workschedule and update of Workshifts for Payroll Proration and Data Lake in general&lt;/font&gt;&lt;/blockquote&gt;" style="text;html=1;align=left;verticalAlign=middle;whiteSpace=wrap;rounded=0;fillColor=#E6E6E6;textShadow=1;" vertex="1" parent="1">
          <mxGeometry x="-1730" y="180" width="1220" height="50" as="geometry" />
        </mxCell>
        <mxCell id="X4ekr1TlXGtI4e0G4jIp-30" value="" style="ellipse;whiteSpace=wrap;html=1;aspect=fixed;fillColor=#76608a;strokeColor=#432D57;fontColor=#ffffff;textShadow=1;" vertex="1" parent="1">
          <mxGeometry x="-1733.62" y="238.86" width="30" height="30" as="geometry" />
        </mxCell>
        <mxCell id="X4ekr1TlXGtI4e0G4jIp-31" value="Workschedules" style="text;html=1;align=center;verticalAlign=middle;whiteSpace=wrap;rounded=0;textShadow=1;" vertex="1" parent="1">
          <mxGeometry x="-1716.62" y="238.86" width="132.75" height="30" as="geometry" />
        </mxCell>
        <mxCell id="X4ekr1TlXGtI4e0G4jIp-32" value="" style="ellipse;whiteSpace=wrap;html=1;aspect=fixed;fillColor=#60a917;strokeColor=#2D7600;textShadow=1;fontColor=#ffffff;" vertex="1" parent="1">
          <mxGeometry x="-1733.62" y="275.57" width="30" height="30" as="geometry" />
        </mxCell>
        <mxCell id="X4ekr1TlXGtI4e0G4jIp-33" value="Scheduling" style="text;html=1;align=center;verticalAlign=middle;whiteSpace=wrap;rounded=0;textShadow=1;" vertex="1" parent="1">
          <mxGeometry x="-1706.62" y="275.57" width="91.75" height="30" as="geometry" />
        </mxCell>
        <mxCell id="X4ekr1TlXGtI4e0G4jIp-44" value="" style="shape=image;verticalLabelPosition=bottom;labelBackgroundColor=default;verticalAlign=top;aspect=fixed;imageAspect=0;image=data:image/png,iVBORw0KGgoAAAANSUhEUgAAAIEAAAB/CAYAAADIOKE5AAAAAXNSR0IArs4c6QAAAARnQU1BAACxjwv8YQUAAAAJcEhZcwAAFxEAABcRAcom8z8AABcjSURBVHhe7Zt3dFVVvseDAglptwQYwVFEHRuShLSb3BqMBBQVpYwNXYr4RkYZy6jz3tgLYxn0WUaxjIViCBBqgJB2U25ySzq9hCJVlC6EQAj5vLX3uQdi5I+3HvCGrNl3re+6556z9z777P3Ze//273duSJXJgdK/t0I6nlD695OCQElBoKQgUFIQKAkpCJQUBEoKAiUFgZKQgkBJQaCkIFBSECgJKQiUFARKCgIlBYGSkIJASUGgpCBQUhAoCSkIlBQESgoCJQWBkpCCQElBoKQgUFIQKAkpCJQUBEoKAiUFgZKQgkBJQaCkIFBSECgJKQiUFARKCgIlBYGSkIJASUGgpCBQUhAoCSkIlBQESgoCJQWBkpCCQElBoHSeIKg22KmKSKMqykr1ma7LNDaqItOo7iiRT3wbf5mnxuigWpQXoaWTaQy2X5cv8hnsvz4vFB28p9H+62syr53q6DOUGbz2i/qKeujP2KE8Wa9gPdurRpTfsVw9j/gWZQXTVkWknvn5zoPOPQRGO57e6RReOZTSSzPwmk9fEx0bMDnwmu2U9bmJ4v5DKbhyGAVXDZXKD6qo/1AqzU7ZuDUmkcdOfkQi+X3TKbh6GPlXDaPgikyKTGlURFupMjlluVIxDkqNaXgMaTKvfm+/yUF5n8EUXZGJJ8ZFIFiXX9Qtxok7xk65wUq12Xnqmrh/ZW8X7n6Zsr56PaX6DiY/PAmfSQfBTvklg8kX9bxSPJ/2bIX9hpAXkURFlKivi4DpdPlCpZEWii8ZrLXDlZnk9x/KMlMapREWajqkPdc65xBUdEvAO+JPNP24j61T81hoSiUgRorZQY1BNLadBZGD8D71Dk079tG0bR9Hdx3i6K69HN21n6N7D3No1Q7c195OdY8UaoxWFocnsGzkRLYXBji29wjH9x3n6Oa9bHx3GvP7uCiNsOIzO/FGpVJ17e18/18fsehyFxXhIr8Dn8FGiTmVnS9/StPmvRQn3kdFeBp+s1YfCUB4Kt7YUWx8dzqL+2Xgi7LKvFUGK56IJPzOB2gKNNK08wDNu/dz9McDHP3xZ34oqacg81HcvR34jWmUXxxHw5/e5siP+2javofm7fs5uuMAPy/fQtHESSy+Yhhl4Wl4zekSzGqTnaLwJPItD7A/r4pju4/Q8lMTzTsPUvfBNBbHj6IkNIlqUVeTTULWsc3PVucUAjF1eboOonLsXxCfne5asntZqTKIGcJJbbST+mgn88ITqHx9ikzD/mZO1mykrWEjbfUbaVu5jWPu1RRfPZxAhIXFxmTKJr4Bx9u05IE1NH46l7Ydh+XvjTNymSNAiLYTiLBRNHAk7G9h+3w3Of1uItAtmRqDnQJzKrs/zpJ5Cq1j8fRIxm+2U2NwUmtwkRuZwspXPoMTUHLP0+T3SKba4KI+WgPbM2Q8bXubobmNEysaaWtYx8nNu2k73AbbDrMofSzlUcm4QwayXJQjPi0nad3bzMk9xzl5qAVaYfvCSuZcM4yKaLFsuCjokcgy1wM0Ne7Rnq9iNSs/n0PrD9rzHVq1nXmp91AsZiejWB4ECL9u+7PReYHAe+9z8gF2LAsws1cagSAEQnXRDnJDE/C9/KlMs25aLjl97ORfkymn0ILfDaf4quF4erlwd09k6eAHOXmiDVqg+Ok3mdM/nTyDlXlxI9gye5EsY8Ons1lqsuHvnkZB3Bha9h2V579f4mFBXxdl4SkUxdjY8f50OA5FafdS2SOBgNlGXbSLQJiD+bGj2L9hh8z3U3E1s37jIBCdTp0hHV93C5UZ42HvcbYWL2fqdUMovC6T2QOGMPc/XpB5dhVU4zZYKQmJp+4lDYKG2Uv4fNBw5qaMYaplBCs+maE985fzWdotkapwO0Wp93Fw9TY41krBhJfI6ZfBwp42suNGsD47X6b/0beWuWZ70NbpJDOB9x4Ngp1LAszuaSFgtOI32/DFiIewkRsWj/+Vf8g0K7+ex9SoOBb1tZHbx87i3g6KzXb8BhtFJjubP8mR6cqe+BtzIwbhiU6lOtJBQVgSc5JGcGDjNmhqxjfkUTwh8eTHjuT4niMyj/hsyasg+zIXc8MT2PVhlhyNxWn34g9NpMZoo9aQztKuSdS/8rmW4WQbrcdPUPrwyxR0T6E6xkVZjxQqbtYgaFzk57PQARR0jyUr5Gqyhj4ksx1ZvY0Cs5OSkEE0vByE4LMspncfgCcqjbweCeRedzt7Vm6gac12ym64k7yQgXw/Za6W9ovvyDIkUBmWIgdKaaiFWb3sbMkto/XIMfw3/4HSSDEbnHv74DxBoC0HO/ICzOpplbsFsb4KQ0ykmR8+CO8rn8g0LQeaOLRhN4c37eLI97s4sn0f5ff/J/ld41jSfxgtW/ZBywkWDryNyrBkaQTKtdrs4pteFraV1clyKkc/RXnIAJbF3cWJg838vGYLe6vXyWublnn4rL+DzW9/pc0oqWPxhqZKW6A83MKcgSNo3naAQ1t+oOD5t2g5dIQf3HUs6ptBhTGF8rBEPEPG0bbnCNu9q5mV+RDFGY+wcOg4iiZpz7FhdgEFJjtlIYNY/uJH8tyqKbOZF55CbfRg6g0uFl0Uz4aZ2uiumvAaWSGX0/i1BkH582+xMCyWOqPoaCu1RoeExPfcW9ozfDKLhT0Gac9+hrY/G50fCPTlYKmP7F6p0pipFVsvaSDamRUZR8Vr2kzQuusAbf5GqN0EDY1Qv5nAmGdY1j2eRVcM5ciq7RKCZfa7qYywUGWyUWMQI9jJd0YLOwqDEIx6Ck/IQArjRnHyUCuH3bV8YxvFtmmL5fUtRV4aZuTQdhSKUh+kMtQm1+S88ASq3/tapvG/9jmfhvRnc1ah/F304F8pCBuIPyyByoyHOLHtJzgJHG2FA81woEUuLycatjIvaSTF0akUd4mn4SUNgpVTZjG3RxJ10YOpNTpZ0i2RTdnF8lrg0VeYGXIZm6ZqS1rFM++yICyOWlMaAbMFv8lGfmgi1S9/LK9v+CibReGxEpBzbRyeXwiWeMk2JxOItlEXYaM2UljcduZExFL5qtZQ66cvYv6lDtzX3ErxtbdS9rtbKL/EhdeQxrLoVGr+qjXCxg+z+K77jfijrNRF2ykJS2ba9UP5cfkmmn46SJnrEbxdEiiKG0PrwVZOeJYzq5+D2T3T8D0zGY62ceJkC62HWym0PIgvNI3KSCuLbryDI9//IO+x9Jm/MX/IA+S98RFtJ+CnitUs6p1KebdYKjPG0bbzIM0Hm9jhbeDQ+q0yz56tu5g3/DFKTE68JitFXeOoe1Gr86opM1kQmkBdpFNucedck8nBlVs4uHIry/rfQn63WOpfmkLrsVYCn+XwbVQS3sg06ow28rvHk/27WzjauIeWvU0sSbybsmgxCAQEv277s9F5guB52Qhb83183jeNpb2c5Pd0UNg7nTKzk4XhiQSCDVX/z2y+CLuGBeZE5pmTmWe2kBdjlb4Ebw8rubGj+WnVZpr3Hab2qbdZ+tubWWC0kxM3gh8q62UZK9+fyYIeiQTCLCyLv4sTh5tp8dSx9MrBlEVaWNA9niX3P8uJn49phqHlPgKhyeSEDSDwd20WEMuEsBc42UrbcfED2o61UvrIi+R0uY6KIY/Cvha25FXxZXgsC64eys6KBu3+f/uWRd0SqDKlUXTRABpe1Ize+i9n86UhgcUmGzk3DGXj0hJ5ftWkr8jvnoTfYGfmFTdxaIUGYf1b08ju7WShyUa5ZSwrpy+R55d/kkOe0UlNtEtuFTu2+9nq3ENwcTz++/+qNSxwcMtujmz8gSObdtO05wCrX/iC6SHXUvf6N/L6yeNtHGzcyZHGH2S6pm17OVS1Gfe1d+CPsLEoNAnvyOc4tHGnTP/zph38tGIjx/ZrW6gduR4Krh+BV8wyoUm440doN65bx9KrMqQhKeo2r3scxeNepHl3M5X2B/F0GUCxaywtx9s4vHUPs4Y+QvHgcZRkjGeZ2EI+O5nWk238uKKR7y614Ut/GI7BzpIVzDYnURqayLxrhrJH2B2t4B7/Im5DIoVdbmDFG/+UVTjR3MqBxp0cbtzFsR8PyO3n9qxl5F03nEBkKvWGVIqjEygb/RTNm3dr7bVpF3sbNoHYjga3wAv6ZVARbqcuOl3bZZ2h7c9G5xQCIX+EhYrE+1jzzresfvdbNnw4g/UfzmDth1msmzKT6pHPsiR8EJ7MCax852tWvzeD9R9k0/j+dzT+dxZrPp7FyknfUnZ5JlVRKXJtXBaZyvzE37Nq8jccLamFNTvY/O0iqv74GvP6uXBHWaTBVBuZRsXlmax59QtWT3iLor6DCUj/hINag435UfG4Rz5FzfV34us+iPLY0ax/L4uGxyaxNCoZ38Wp+LrZ8HVNYVHkIALjXmLd5Gl4E++h8uphrH3xc6rHvU5eT+F6tlEWmoDb+oCs96qJf6fcnEZlWCK+IRNYPXkqa96dyoYPZ7L2/Rnyu/KhF8k2WygRuxKTkzqDlRqzjcUR8bjT7qHhzSnsz/fCul1sn51P4Ol3mPUbG+VRmqEo7CG/8dw7jM45BMLdKrxt7i7xFHeJxX3xQIoujqX4onhKQ2LxhiZTFeOgPCKJ/IsGUthVpIujrEscpSFxFHRJIL9rAlXS7SvWQGHFOwmEOyjsEk/55Zl4Bo6mODyV4q4JlJuteHs6pVdSbp+iXLhDkikOtVBpFDGHdOqjXFQbrPhjrJSGJRKISqXW4CAQ6aK4SwLFofFyG9tgSKc2ykWN2U61OZWK7gmUdEnEF2XDZ7RSfHEspaHCyaS5tOtEjKSHFXfIIEq7J1Etdi4mJ5U9LLi7DJLpiy+Kwx0SR1lIPJ6uSVQZNZexgLPaKLyGTgIxLjwRFvIuvpHiS9OpiBtJgdlG0UWiHdK1HZHZht+Uij/GJt3YHdv9bHTOIRCSASLZAcHAT4fjUyR3uKZd15xKWlmnH7ZGrIkGB96oNMoiU6UXstroko0o3K8yvzyn5RfnfWaH9OnXRrukQSp8FQGTaFThKXRQG50u0wuXs+hYUUZ9lBYr8MZo926/Lxd19Zvs+Mw26WMQ3kQBk7i/BONUG4gtsbYtls+n10/8bt9WAu5gzENvM69wU0da8MlttQDldJlCgQvdJvj/kPD3i84Vx6Lx5EgyaZ0hGkxck40qGk/ODnbpFhadIjrXb0onIJxRZlGW61TsQJQnvkU5AhAZ6IrRypOdHJQAQAAirgunjgBZT9O+HOGqPt2B/3tJGM5w/nyqU0GgdawGgt5QovFPdXqw42R0MAiBJr2zxbEY2TYZN9BgEv4LreMlAEatc8VvDZTTM5ZWDw0AcSzSi+9ToznoENOP/y8Q/CvUqSDQO0oc643cfpTqEte1WUJ0tBj92hQvAzCyw20SDm0aF2ut1vnSTugwPeuzgz7TCED0447eO5FPLkHnYco+n+pUEOidoneUfl7rcO1Y7zC9Q/UO0QIvWgROrOcCAnFdA0KzuMWor4zRJI4FOOVRFjxyCTg9I+gjvOOo7zgTdKz/hapOBYHe2Xojy9+6fWB24olMpaTrIBkeXh7tos7gwhOWRHlogty1BIxi1FupNQhjUTMOxdotoQhC4JXTvZOaKAfePhkstt3N0v43U2nUlg+ffMFDs/CljRCsi5wd2tW1PSwXujotBLrxJlQvOiA8DU/S76l/YhKePjdTH+mkJNpKzR3PsOLu/8JtSKVKvC0kXyQR3jcHPqOdwugUKqQrVrMfxDVhSNb1cFD22yHsL11Bw8OvUt41QYbEK83iraR0GXfQINTgEoanqOOpJamTACDUqSAQaj/dim9xbnmUg8qQWNY+/wEtm3ZReFkm1eEuZhmSWT91GfWPv81iQwolERa8JhvuyFQqzC7yjCnUTZhEwPYQnsgUKiNSKBf+h4g0SsJS8VxzJ3ty3PgyH5V+jopoO8uiUvBEWqk3DtbsiuCyIULkOqT6bqFj3S9UdSoI9EYWx2ImEI1dESOOXZR0iWflk++TP/F1ckITKA938F1vK+u+yqUsfgy5Ym+fOZGK32ZQlj6enOhkAjeNo8W3lqrMx1jcYxD1mX8kYHmQktsepzx+DL74+1n9jxym905hedy9lA+4i9pb/0R1/P0Eegh3tFPbjcQIKIXRqRmenWkpEOqUEIgG1rdx4lylyclCYwor3/yKre56Vr83m42T57Ilq5h9uRXkXj2UFU99RNVDr1HUZzCHy1dRMfwP+Ic9waqPs5kfk0r9zeM5NLOEgpvHc8TXyNo3viQw/EnWf5TDP28cwoHP81iSPJr68W+y6f5J+C9K1ECMseMVTiizsCt0l67wXZx7H//5UqeDQLcHTnkZDU5Ko9LItd7DvoIGckc/QVbKaKYPGE7g1c9Y8sJksm8fDyv2sPCGO+RraKzdxeoXPqB6xDM0vP4NWSFXse3lL8l95C8UJt/Ltnez+TRuKJun5LLigZf46nIra16awoFvCnHf+yxLLnFRG6m9Lyl8+cKBpHnzdIeUMBpdv6r/hapOB4EwuHRPnRxtRhclkRYKRz5O4/uzWNxlIOVRdvIiLOx5Zw6LH3+dWb9/AkrWMe+qTAquv4vdM0qY6bybg9NKqRn7Agu6DuT7V76haOKbzO8eh6dXBtP7Wlk7ZQElVw5n7aOTybo6g4K7/8yO+T5yeqZRY0inTriYhWHYwW+h16tj/S9UdSoIdJewXArkmitGootSg5X1Y//K5qc/xBNuwRtuxXP9nfz8tRvf7U8yz5DCisfexjvmSZZPeIeaWyYyIyaFXe/OZu2oZym75CZqH3iJ3dMK8Q66m4bbnmPejbex7e0sqi6/jQ0TPqBqzJ8pcoyl+o/vsPQ3TqoMItagxRy0XYVmD+gQiN1Dx/pfqOpUEOi7AQGAtj3T9u2eGCeey4fgvTSDqpjB+IxOvP0yKb8sg8pe6fgMDtyGNNY7Hqbi2lvJj0yhNMZOaZ/B1A4YTanZwVJjKhUD7mRF7L2URFkp6Omk9sbR1PTMoCjCQmDAKFYnjmWpOY2ynsIN7ZKzgPBKCkeUgEDGJEQ99UDYGZ7hQlSngkBIn3o1l682OwgLvdJgxxetxQb8wcieiDhqkUXNjhB/RqmMtmpliGncYMMfIfwHLvwxLvm6mT/CKv8fIWwNn3hRRRqgTvmCSyBC+/eQNtW75NtPwu0stocaBJoL+pexhgtfnQoC3RHTfhsmOlS6hts1vBaJE6HdYHhXuIiDsYJTYe5glE+fXbRZxU6NdP6It5m1MG69DGEHw8piKRIRSRG/kMElp+x4CYHwE8hQ9b8mEng26pQQiGN9dOsd2fHaqd9BT57eOWIpEdCINO2DURKmnto7CGJm0f6ipt1DDxf7RPxAlnk6n5gBxNYwILeH2ozQPtLYGdSpINB2BLrxpZ3TO0qfEfRr7aHQJTstGG7WO7k9TDJNcCnRlx0JVHDZ0cvU8woDVYSntW2hFqrWfv/63heyOhUEeqfouwT9nIz96517Bkja5+1Y3qkygp0q3hbSQ8T6dQlA8A+1omx9JtEgOH1PHaYzAXghq9NBIL5FA+udqnd2+5lAv6a/I6Cn09OKc6c6MJhHvMgpXkiV03+He0qo2pWl30NPq3e4Hr7WI5udRZ0KAn2ktZ+a2/sORCd0HIEivX5enyn08+L7F9N8u3z6lK6n0+8v3lrW/xR6atSLWSI4M+gQtM93oatTQqBF7n4Jgf4iiUinj3p95Lefxs/U0e3T63naH+vSRv8v/xks8+tGZLuOVxAodSopCJQUBEoKAiUFgZKQgkBJQaCkIFBSECgJKQiUFARKCgIlBYGSkIJASUGgpCBQUhAoCSkIlBQESgoCJQWBkpCCQElBoKQgUFIQKAkpCJQUBEoKAiUFgZKQgkBJQaCkIFBSECgJKQiUFARKCgIlBYGSkIJASUGgpCBQMjn4Hx3ETSYT2eHXAAAAAElFTkSuQmCC;" vertex="1" parent="1">
          <mxGeometry x="-610" y="72.11" width="96.38" height="94.89" as="geometry" />
        </mxCell>
        <mxCell id="X4ekr1TlXGtI4e0G4jIp-45" value="" style="shape=image;verticalLabelPosition=bottom;labelBackgroundColor=default;verticalAlign=top;aspect=fixed;imageAspect=0;image=https://cdn.freelogovectors.net/wp-content/uploads/2020/09/kainos-logo.png;textShadow=1;" vertex="1" parent="1">
          <mxGeometry x="-1720" y="99.56" width="173.91" height="40" as="geometry" />
        </mxCell>
        <mxCell id="X4ekr1TlXGtI4e0G4jIp-46" value="Designed by your Workday Partner" style="text;html=1;align=center;verticalAlign=middle;whiteSpace=wrap;rounded=0;textShadow=1;" vertex="1" parent="1">
          <mxGeometry x="-1730" y="134.85000000000002" width="200" height="30" as="geometry" />
        </mxCell>
        <mxCell id="X4ekr1TlXGtI4e0G4jIp-53" style="edgeStyle=orthogonalEdgeStyle;rounded=0;orthogonalLoop=1;jettySize=auto;html=1;dashed=1;strokeColor=#0066CC;entryX=0;entryY=0;entryDx=0;entryDy=42.5;entryPerimeter=0;" edge="1" parent="1" source="X4ekr1TlXGtI4e0G4jIp-49" target="X4ekr1TlXGtI4e0G4jIp-2">
          <mxGeometry relative="1" as="geometry">
            <mxPoint x="-1240" y="310" as="targetPoint" />
            <Array as="points">
              <mxPoint x="-1340" y="296" />
            </Array>
          </mxGeometry>
        </mxCell>
        <mxCell id="X4ekr1TlXGtI4e0G4jIp-54" value="&lt;span style=&quot;background-color: rgb(255, 255, 204);&quot;&gt;Assign&amp;nbsp;&lt;/span&gt;&lt;div&gt;&lt;span style=&quot;background-color: rgb(255, 255, 204);&quot;&gt;Workschedule&lt;/span&gt;&lt;/div&gt;" style="edgeLabel;html=1;align=center;verticalAlign=middle;resizable=0;points=[];" vertex="1" connectable="0" parent="X4ekr1TlXGtI4e0G4jIp-53">
          <mxGeometry x="-0.3023" y="-3" relative="1" as="geometry">
            <mxPoint x="25" y="-3" as="offset" />
          </mxGeometry>
        </mxCell>
        <mxCell id="X4ekr1TlXGtI4e0G4jIp-49" value="&lt;font style=&quot;color: rgb(51, 51, 51);&quot;&gt;Absence Admin&lt;/font&gt;" style="outlineConnect=0;dashed=0;verticalLabelPosition=bottom;verticalAlign=top;align=center;html=1;shape=mxgraph.aws3.user;fillColor=#76608a;strokeColor=#432D57;fontColor=#ffffff;" vertex="1" parent="1">
          <mxGeometry x="-1503.44" y="260" width="30" height="40" as="geometry" />
        </mxCell>
        <mxCell id="X4ekr1TlXGtI4e0G4jIp-52" value="&lt;font style=&quot;color: rgb(0, 0, 0);&quot;&gt;Scheduling Admin&lt;/font&gt;" style="outlineConnect=0;dashed=0;verticalLabelPosition=bottom;verticalAlign=top;align=center;html=1;shape=mxgraph.aws3.user;fillColor=#6d8764;strokeColor=#3A5431;fontColor=#ffffff;" vertex="1" parent="1">
          <mxGeometry x="-1503.44" y="328.71" width="30" height="40" as="geometry" />
        </mxCell>
        <mxCell id="X4ekr1TlXGtI4e0G4jIp-59" value="2" style="ellipse;whiteSpace=wrap;html=1;aspect=fixed;fillColor=#76608a;strokeColor=#432D57;fontColor=#ffffff;align=center;verticalAlign=middle;fontFamily=Helvetica;fontSize=12;textShadow=1;" vertex="1" parent="1">
          <mxGeometry x="-920" y="350" width="20" height="20" as="geometry" />
        </mxCell>
        <mxCell id="X4ekr1TlXGtI4e0G4jIp-60" value="3" style="ellipse;whiteSpace=wrap;html=1;aspect=fixed;fillColor=#76608a;strokeColor=#432D57;fontColor=#ffffff;align=center;verticalAlign=middle;fontFamily=Helvetica;fontSize=12;textShadow=1;" vertex="1" parent="1">
          <mxGeometry x="-1341" y="537" width="20" height="20" as="geometry" />
        </mxCell>
        <mxCell id="X4ekr1TlXGtI4e0G4jIp-61" value="&lt;font color=&quot;#ff6666&quot;&gt;RaaS&amp;nbsp;&lt;/font&gt;&lt;div&gt;&lt;font color=&quot;#ff6666&quot;&gt;REST API&lt;/font&gt;&lt;/div&gt;" style="edgeLabel;html=1;align=center;verticalAlign=middle;resizable=0;points=[];textShadow=1;" vertex="1" connectable="0" parent="1">
          <mxGeometry x="-810" y="368.71" as="geometry">
            <mxPoint y="-1" as="offset" />
          </mxGeometry>
        </mxCell>
        <mxCell id="X4ekr1TlXGtI4e0G4jIp-62" style="edgeStyle=orthogonalEdgeStyle;rounded=0;orthogonalLoop=1;jettySize=auto;html=1;entryX=-0.015;entryY=0.653;entryDx=0;entryDy=0;entryPerimeter=0;curved=0;dashed=1;strokeColor=#0066CC;" edge="1" parent="1" source="X4ekr1TlXGtI4e0G4jIp-52" target="X4ekr1TlXGtI4e0G4jIp-2">
          <mxGeometry relative="1" as="geometry">
            <Array as="points">
              <mxPoint x="-1380" y="344" />
              <mxPoint x="-1380" y="344" />
            </Array>
          </mxGeometry>
        </mxCell>
        <mxCell id="X4ekr1TlXGtI4e0G4jIp-63" value="&lt;span style=&quot;background-color: rgb(255, 255, 204);&quot;&gt;Publish Schedule&lt;/span&gt;" style="edgeLabel;html=1;align=center;verticalAlign=middle;resizable=0;points=[];" vertex="1" connectable="0" parent="X4ekr1TlXGtI4e0G4jIp-62">
          <mxGeometry x="-0.2502" y="1" relative="1" as="geometry">
            <mxPoint x="13" y="4" as="offset" />
          </mxGeometry>
        </mxCell>
        <mxCell id="X4ekr1TlXGtI4e0G4jIp-65" value="1" style="ellipse;whiteSpace=wrap;html=1;aspect=fixed;fillColor=#60a917;strokeColor=#2D7600;fontColor=#ffffff;align=center;verticalAlign=middle;fontFamily=Helvetica;fontSize=12;textShadow=1;" vertex="1" parent="1">
          <mxGeometry x="-1425.44" y="321.79" width="20" height="20" as="geometry" />
        </mxCell>
        <mxCell id="X4ekr1TlXGtI4e0G4jIp-66" value="&lt;span style=&quot;background-color: rgb(255, 255, 204);&quot;&gt;EDIT POSITION&lt;/span&gt;" style="edgeLabel;html=1;align=center;verticalAlign=middle;resizable=0;points=[];textShadow=1;" vertex="1" connectable="0" parent="1">
          <mxGeometry x="-1358.9999999999998" y="410" as="geometry" />
        </mxCell>
        <mxCell id="X4ekr1TlXGtI4e0G4jIp-67" value="&lt;font color=&quot;#ff6666&quot;&gt;SOAP API&lt;/font&gt;&lt;div&gt;&lt;font color=&quot;#ff6666&quot;&gt;{&amp;nbsp;&lt;b&gt;Edit_Position&amp;nbsp;&lt;/b&gt;}&lt;/font&gt;&lt;/div&gt;" style="edgeLabel;html=1;align=center;verticalAlign=middle;resizable=0;points=[];textShadow=1;" vertex="1" connectable="0" parent="1">
          <mxGeometry x="-1546.09" y="430.00000000000006" as="geometry">
            <mxPoint x="186" y="17" as="offset" />
          </mxGeometry>
        </mxCell>
        <mxCell id="X4ekr1TlXGtI4e0G4jIp-73" style="edgeStyle=orthogonalEdgeStyle;rounded=1;orthogonalLoop=1;jettySize=auto;html=1;entryX=0.5;entryY=1;entryDx=0;entryDy=0;curved=0;dashed=1;strokeColor=#007FFF;" edge="1" parent="1" source="X4ekr1TlXGtI4e0G4jIp-68" target="X4ekr1TlXGtI4e0G4jIp-74">
          <mxGeometry relative="1" as="geometry">
            <mxPoint x="-1170" y="730" as="targetPoint" />
            <Array as="points">
              <mxPoint x="-650" y="590" />
              <mxPoint x="-1494" y="590" />
            </Array>
          </mxGeometry>
        </mxCell>
        <mxCell id="X4ekr1TlXGtI4e0G4jIp-68" value="GET&lt;div&gt;Organization Schedule Shifts&lt;/div&gt;" style="rounded=1;whiteSpace=wrap;html=1;fillColor=#60a917;strokeColor=#2D7600;textShadow=1;fontColor=#ffffff;" vertex="1" parent="1">
          <mxGeometry x="-720" y="415" width="120" height="50" as="geometry" />
        </mxCell>
        <mxCell id="X4ekr1TlXGtI4e0G4jIp-71" value="&lt;font color=&quot;#ff6666&quot;&gt;RaaS&amp;nbsp;&lt;/font&gt;&lt;div&gt;&lt;font color=&quot;#ff6666&quot;&gt;REST API&lt;/font&gt;&lt;/div&gt;" style="edgeLabel;html=1;align=center;verticalAlign=middle;resizable=0;points=[];textShadow=1;" vertex="1" connectable="0" parent="1">
          <mxGeometry x="-660" y="370" as="geometry">
            <mxPoint y="-1" as="offset" />
          </mxGeometry>
        </mxCell>
        <mxCell id="X4ekr1TlXGtI4e0G4jIp-72" value="2" style="ellipse;whiteSpace=wrap;html=1;aspect=fixed;fillColor=#60a917;strokeColor=#2D7600;fontColor=#ffffff;align=center;verticalAlign=middle;fontFamily=Helvetica;fontSize=12;textShadow=1;" vertex="1" parent="1">
          <mxGeometry x="-921" y="315" width="20" height="20" as="geometry" />
        </mxCell>
        <mxCell id="X4ekr1TlXGtI4e0G4jIp-74" value="&lt;div&gt;UPDATE&lt;/div&gt;&lt;div&gt;Position with mapped&lt;/div&gt;Schedule to WorkShifts" style="rounded=1;whiteSpace=wrap;html=1;fillColor=#60a917;strokeColor=#2D7600;textShadow=1;fontColor=#ffffff;" vertex="1" parent="1">
          <mxGeometry x="-1560" y="473" width="131.56" height="47.5" as="geometry" />
        </mxCell>
      </root>
    </mxGraphModel>
  </diagram>
</mxfile>
